<svg xmlns="http://www.w3.org/2000/svg" viewBox="0 0 512 512"><path d="M284.682 405.593l6.398-1.297c8.444-1.712 8.444-13.781 0-15.493l-6.398-1.297a40.935 40.935 0 01-31.985-31.985l-1.297-6.398c-1.712-8.444-13.781-8.444-15.493 0l-1.297 6.398a40.935 40.935 0 01-31.985 31.985l-6.398 1.297c-8.444 1.712-8.444 13.781 0 15.493l6.398 1.297a40.935 40.935 0 0131.985 31.985l1.297 6.398c1.712 8.444 13.781 8.444 15.493 0l1.297-6.398a40.935 40.935 0 0131.985-31.985z" fill="#f9d366"/><g fill="#d83"><path d="M397.203 445.72a7.726 7.726 0 01-7.726-7.726v-20.92a7.726 7.726 0 1115.452 0v20.92a7.726 7.726 0 01-7.726 7.726zM397.203 502.04a7.726 7.726 0 01-7.726-7.726v-20.92a7.726 7.726 0 1115.452 0v20.92a7.725 7.725 0 01-7.726 7.726zM435.823 463.421h-20.92a7.726 7.726 0 110-15.452h20.92a7.726 7.726 0 110 15.452zM379.502 463.421h-20.92a7.726 7.726 0 110-15.452h20.92a7.726 7.726 0 110 15.452zM46.346 348.37a7.726 7.726 0 01-7.726-7.726v-20.92a7.726 7.726 0 1115.452 0v20.92a7.726 7.726 0 01-7.726 7.726zM46.346 404.691a7.726 7.726 0 01-7.726-7.726v-20.92a7.726 7.726 0 1115.452 0v20.92a7.726 7.726 0 01-7.726 7.726zM84.967 366.07h-20.92a7.726 7.726 0 110-15.452h20.92a7.726 7.726 0 110 15.452zM28.646 366.07H7.726a7.726 7.726 0 110-15.452h20.92a7.726 7.726 0 110 15.452zM398.204 46.332a7.726 7.726 0 01-7.726-7.726v-20.92a7.726 7.726 0 1115.452 0v20.92a7.726 7.726 0 01-7.726 7.726zM398.204 102.652a7.726 7.726 0 01-7.726-7.726V74.007a7.726 7.726 0 1115.452 0v20.92a7.725 7.725 0 01-7.726 7.725zM436.825 64.032h-20.92a7.726 7.726 0 110-15.452h20.92a7.726 7.726 0 110 15.452zM380.504 64.032h-20.92a7.726 7.726 0 110-15.452h20.92a7.726 7.726 0 110 15.452z"/></g><g fill="#f9d366"><path d="M262.382 156.253l30.626-6.209c14.458-2.932 14.458-23.595 0-26.527l-30.626-6.209c-30.18-6.119-53.767-29.706-59.886-59.886l-6.209-30.626c-2.932-14.458-23.595-14.458-26.527 0l-6.209 30.626c-6.119 30.18-29.706 53.767-59.886 59.886l-30.626 6.209c-14.458 2.932-14.458 23.595 0 26.527l30.626 6.209c30.18 6.119 53.767 29.706 59.886 59.886l6.209 30.626c2.932 14.458 23.595 14.458 26.527 0l6.209-30.626c6.118-30.18 29.706-53.766 59.886-59.886zM480.152 262.816l23.52-4.769c11.104-2.251 11.104-18.121 0-20.372l-23.52-4.769c-23.178-4.7-41.292-22.813-45.991-45.991l-4.769-23.52c-2.251-11.104-18.121-11.104-20.371 0l-4.769 23.52c-4.7 23.178-22.813 41.292-45.991 45.991l-23.52 4.769c-11.104 2.251-11.104 18.121 0 20.372l23.52 4.769c23.178 4.7 41.292 22.813 45.991 45.991l4.769 23.52c2.251 11.104 18.121 11.104 20.371 0l4.769-23.52c4.7-23.177 22.815-41.292 45.991-45.991z"/></g></svg>
