<svg xmlns="http://www.w3.org/2000/svg" xmlns:xlink="http://www.w3.org/1999/xlink" width="700" height="700" viewBox="0 0 185.208 185.208"><defs><linearGradient id="a"><stop offset="0" stop-color="#008267"/><stop offset="1" stop-color="#00dfcd"/></linearGradient><linearGradient id="b"><stop offset="0" stop-color="#1565c0"/><stop offset=".498" stop-color="#1f87e5"/><stop offset=".84" stop-color="#63b4f6"/><stop offset="1" stop-color="#42a4f5"/></linearGradient><linearGradient xlink:href="#a" id="c" x1="-72.885" y1="52.209" x2="-73.132" y2="-.638" gradientUnits="userSpaceOnUse" gradientTransform="translate(86.393 .746)"/><linearGradient xlink:href="#a" id="e" gradientUnits="userSpaceOnUse" x1="-102.054" y1="59.618" x2="-100.671" y2="7.359" gradientTransform="translate(88.065 -113.013)"/><linearGradient xlink:href="#a" id="d" gradientUnits="userSpaceOnUse" x1="-102.705" y1="59.719" x2="-99.996" y2="7.108" gradientTransform="translate(193.898 -113.013)"/><radialGradient xlink:href="#b" id="f" cx="55.766" cy="233.16" fx="55.766" fy="233.16" r="200" gradientUnits="userSpaceOnUse" gradientTransform="translate(38.162 -8.774) scale(.26458)"/></defs><path d="M92.604 6.615a85.99 85.99 0 00-85.99 85.989 85.99 85.99 0 0085.99 85.99 85.99 85.99 0 0085.99-85.99 85.99 85.99 0 00-85.99-85.99zm-.034 39.687a46.302 46.302 0 01.034 0 46.302 46.302 0 0146.302 46.302 46.302 46.302 0 01-46.302 46.302 46.302 46.302 0 01-46.302-46.302A46.302 46.302 0 0192.57 46.302z" fill="#fff"/><ellipse cx="51.014" cy="30.668" rx="6.435" ry="11.267" opacity=".999" fill="none"/><path d="M92.604 13.23a79.375 79.375 0 00-79.375 79.374 79.375 79.375 0 0079.375 79.375 79.375 79.375 0 0079.375-79.375 79.375 79.375 0 00-79.375-79.375zm-.034 33.072a46.302 46.302 0 01.034 0 46.302 46.302 0 0146.302 46.302 46.302 46.302 0 01-46.302 46.302 46.302 46.302 0 01-46.302-46.302A46.302 46.302 0 0192.57 46.302z" fill="#42a5f5"/><path d="M92.604 19.844a72.76 72.76 0 00-72.76 72.76 72.76 72.76 0 0072.76 72.76 72.76 72.76 0 0072.76-72.76 72.76 72.76 0 00-72.76-72.76zm-.034 26.458a46.302 46.302 0 01.034 0 46.302 46.302 0 0146.302 46.302 46.302 46.302 0 01-46.302 46.302 46.302 46.302 0 01-46.302-46.302A46.302 46.302 0 0192.57 46.302z" fill="#64b5f6"/><path d="M92.478 26.458a66.146 66.146 0 00-66.02 66.146 66.146 66.146 0 0066.146 66.145 66.146 66.146 0 0066.145-66.145 66.146 66.146 0 00-66.145-66.146 66.146 66.146 0 00-.126 0zm.092 19.844a46.302 46.302 0 01.034 0 46.302 46.302 0 0146.302 46.302 46.302 46.302 0 01-46.302 46.302 46.302 46.302 0 01-46.302-46.302A46.302 46.302 0 0192.57 46.302z" fill="#90caf9"/><path d="M92.537 33.073a59.531 59.531 0 00-59.464 59.53 59.531 59.531 0 0059.53 59.532 59.531 59.531 0 0059.532-59.531 59.531 59.531 0 00-59.531-59.531 59.531 59.531 0 00-.067 0zm.033 13.229a46.302 46.302 0 01.034 0 46.302 46.302 0 0146.302 46.302 46.302 46.302 0 01-46.302 46.302 46.302 46.302 0 01-46.302-46.302A46.302 46.302 0 0192.57 46.302z" fill="#bbdefb"/><path d="M92.549 39.687a52.916 52.916 0 00-52.862 52.917 52.916 52.916 0 0052.917 52.916 52.916 52.916 0 0052.916-52.916 52.916 52.916 0 00-52.916-52.917 52.916 52.916 0 00-.055 0zm.021 6.615a46.302 46.302 0 01.034 0 46.302 46.302 0 0146.302 46.302 46.302 46.302 0 01-46.302 46.302 46.302 46.302 0 01-46.302-46.302A46.302 46.302 0 0192.57 46.302z" fill="#e3f2fd"/><circle cx="92.604" cy="92.604" r="46.302" fill="#fff"/><path d="M13.3 0a13.23 13.23 45.307 0113.16 13.3v39.617H0V13.3A13.3 13.3 135 0113.3 0z" fill="url(#c)" transform="matrix(.4375 0 0 .4375 69.453 69.453)"/><path transform="matrix(0 .4375 -.4375 0 69.453 69.453)" d="M92.675-105.834a13.23 13.23 45.307 0113.158 13.3v39.617H79.375v-39.617a13.3 13.3 135 0113.3-13.3z" fill="url(#d)"/><path transform="matrix(-.4375 0 0 -.4375 69.453 69.453)" d="M-13.159-105.833A13.23 13.23 45.307 010-92.533v39.616h-26.46v-39.616a13.3 13.3 135 0113.3-13.3z" fill="url(#e)"/><path d="M52.862 0A52.917 52.917 0 000 52.917a52.917 52.917 0 0052.917 52.916 52.917 52.917 0 0052.917-52.916 52.917 52.917 0 000-.014 13.23 13.23 0 000-.014 52.917 52.917 0 00-.056-2.384v1.205a13.23 13.23 0 00-13.174-12.022 13.23 13.23 0 00-13.229 13.229 13.23 13.23 0 000 .014 26.458 26.458 0 01-26.458 26.444 26.458 26.458 0 01-26.458-26.458 26.458 26.458 0 0126.403-26.459 13.23 13.23 0 00.055 0A13.23 13.23 0 0066.146 13.23 13.23 13.23 0 0052.916 0a13.23 13.23 0 00-.054 0z" fill="url(#f)" transform="matrix(.4375 0 0 .4375 69.453 69.453)"/></svg>