<?xml version="1.0" encoding="UTF-8" standalone="no"?>
<svg
   xmlns:dc="http://purl.org/dc/elements/1.1/"
   xmlns:cc="http://creativecommons.org/ns#"
   xmlns:rdf="http://www.w3.org/1999/02/22-rdf-syntax-ns#"
   xmlns:svg="http://www.w3.org/2000/svg"
   xmlns="http://www.w3.org/2000/svg"
   xmlns:xlink="http://www.w3.org/1999/xlink"
   xmlns:sodipodi="http://sodipodi.sourceforge.net/DTD/sodipodi-0.dtd"
   xmlns:inkscape="http://www.inkscape.org/namespaces/inkscape"
   width="700"
   height="700"
   viewBox="0 0 185.20775 185.20775"
   version="1.1"
   id="svg961"
   sodipodi:docname="static-logo.svg"
   inkscape:version="1.0.1 (0767f8302a, 2020-10-17)">
  <metadata
     id="metadata965">
    <rdf:RDF>
      <cc:Work
         rdf:about="">
        <dc:format>image/svg+xml</dc:format>
        <dc:type
           rdf:resource="http://purl.org/dc/dcmitype/StillImage" />
        <dc:title></dc:title>
      </cc:Work>
    </rdf:RDF>
  </metadata>
  <sodipodi:namedview
     pagecolor="#ffffff"
     bordercolor="#666666"
     borderopacity="1"
     objecttolerance="10"
     gridtolerance="10"
     guidetolerance="10"
     inkscape:pageopacity="0"
     inkscape:pageshadow="2"
     inkscape:window-width="1380"
     inkscape:window-height="836"
     id="namedview963"
     showgrid="false"
     inkscape:zoom="0.8375"
     inkscape:cx="254.64425"
     inkscape:cy="349.27217"
     inkscape:window-x="60"
     inkscape:window-y="27"
     inkscape:window-maximized="1"
     inkscape:current-layer="svg961" />
  <defs
     id="defs951">
    <linearGradient
       id="b">
      <stop
         offset="0"
         stop-color="#008267"
         id="stop933" />
      <stop
         offset="1"
         stop-color="#00dfcd"
         id="stop935" />
    </linearGradient>
    <linearGradient
       id="a">
      <stop
         offset="0"
         stop-color="#1565c0"
         id="stop938" />
      <stop
         offset=".498"
         stop-color="#1f87e5"
         id="stop940" />
      <stop
         offset=".84"
         stop-color="#63b4f6"
         id="stop942" />
      <stop
         offset="1"
         stop-color="#42a4f5"
         id="stop944" />
    </linearGradient>
    <linearGradient
       xlink:href="#b"
       id="c"
       x1="-72.885002"
       y1="52.209"
       x2="-73.132004"
       y2="-0.63800001"
       gradientUnits="userSpaceOnUse"
       gradientTransform="translate(86.393,0.746)" />
    <linearGradient
       xlink:href="#b"
       id="e"
       gradientUnits="userSpaceOnUse"
       x1="-102.054"
       y1="59.618"
       x2="-100.671"
       y2="7.3590002"
       gradientTransform="translate(88.065,-113.013)" />
    <linearGradient
       xlink:href="#b"
       id="d"
       gradientUnits="userSpaceOnUse"
       x1="-102.705"
       y1="59.719002"
       x2="-99.996002"
       y2="7.1079998"
       gradientTransform="translate(193.898,-113.013)" />
    <radialGradient
       xlink:href="#a"
       id="f"
       cx="55.765999"
       cy="233.16"
       fx="55.765999"
       fy="233.16"
       r="200"
       gradientUnits="userSpaceOnUse"
       gradientTransform="matrix(0.26458,0,0,0.26458,38.162,-8.774)" />
  </defs>
  <path
     id="path1480"
     style="opacity:1;fill:#ffffff;fill-opacity:1;stroke:none;stroke-width:146.442;stroke-miterlimit:4;stroke-dasharray:none;stroke-opacity:1"
     d="M 350 25 A 324.99999 324.99999 0 0 0 25 350 A 324.99999 324.99999 0 0 0 350 675 A 324.99999 324.99999 0 0 0 675 350 A 324.99999 324.99999 0 0 0 350 25 z M 349.87305 175 A 175 175 0 0 1 350 175 A 175 175 0 0 1 525 350 A 175 175 0 0 1 350 525 A 175 175 0 0 1 175 350 A 175 175 0 0 1 349.87305 175 z "
     transform="scale(0.2645825)" />
  <ellipse
     style="opacity:0.999307;fill:#2196f3;fill-opacity:0;stroke-width:4.99997"
     id="path975"
     cx="51.014408"
     cy="30.667658"
     rx="6.4347081"
     ry="11.267134" />
  <path
     id="path1482"
     style="opacity:1;fill:#42a5f5;fill-opacity:1;stroke:none;stroke-width:113.782;stroke-miterlimit:4;stroke-dasharray:none;stroke-opacity:1"
     d="M 350 50 A 299.99999 299.99999 0 0 0 50 350 A 299.99999 299.99999 0 0 0 350 650 A 299.99999 299.99999 0 0 0 650 350 A 299.99999 299.99999 0 0 0 350 50 z M 349.87305 175 A 175 175 0 0 1 350 175 A 175 175 0 0 1 525 350 A 175 175 0 0 1 350 525 A 175 175 0 0 1 175 350 A 175 175 0 0 1 349.87305 175 z "
     transform="scale(0.2645825)" />
  <path
     id="path1484"
     style="opacity:1;fill:#64b5f6;fill-opacity:1;stroke:none;stroke-width:87.7987;stroke-miterlimit:4;stroke-dasharray:none;stroke-opacity:1"
     d="M 350 75 A 274.99999 274.99999 0 0 0 75 350 A 274.99999 274.99999 0 0 0 350 625 A 274.99999 274.99999 0 0 0 625 350 A 274.99999 274.99999 0 0 0 350 75 z M 349.87305 175 A 175 175 0 0 1 350 175 A 175 175 0 0 1 525 350 A 175 175 0 0 1 350 525 A 175 175 0 0 1 175 350 A 175 175 0 0 1 349.87305 175 z "
     transform="scale(0.2645825)" />
  <path
     id="path1486"
     style="opacity:1;fill:#90caf9;fill-opacity:1;stroke:none;stroke-width:126.646;stroke-miterlimit:4;stroke-dasharray:none;stroke-opacity:1"
     d="M 349.52539 100 A 249.99999 249.99999 0 0 0 100 350 A 249.99999 249.99999 0 0 0 350 600 A 249.99999 249.99999 0 0 0 600 350 A 249.99999 249.99999 0 0 0 350 100 A 249.99999 249.99999 0 0 0 349.52539 100 z M 349.87305 175 A 175 175 0 0 1 350 175 A 175 175 0 0 1 525 350 A 175 175 0 0 1 350 525 A 175 175 0 0 1 175 350 A 175 175 0 0 1 349.87305 175 z "
     transform="scale(0.2645825)" />
  <path
     id="path1488"
     style="opacity:1;fill:#bbdefb;fill-opacity:1;stroke:none;stroke-width:125.583;stroke-miterlimit:4;stroke-dasharray:none;stroke-opacity:1"
     d="M 349.74805 125 A 225 225 0 0 0 125 350 A 225 225 0 0 0 350 575 A 225 225 0 0 0 575 350 A 225 225 0 0 0 350 125 A 225 225 0 0 0 349.74805 125 z M 349.87305 175 A 175 175 0 0 1 350 175 A 175 175 0 0 1 525 350 A 175 175 0 0 1 350 525 A 175 175 0 0 1 175 350 A 175 175 0 0 1 349.87305 175 z "
     transform="scale(0.2645825)" />
  <path
     id="path1490"
     style="opacity:1;fill:#e3f2fd;fill-opacity:1;stroke:none;stroke-width:74.2328;stroke-miterlimit:4;stroke-dasharray:none;stroke-opacity:1"
     d="M 349.79102 150 A 200 200 0 0 0 150 350 A 200 200 0 0 0 350 550 A 200 200 0 0 0 550 350 A 200 200 0 0 0 350 150 A 200 200 0 0 0 349.79102 150 z M 349.87305 175 A 175 175 0 0 1 350 175 A 175 175 0 0 1 525 350 A 175 175 0 0 1 350 525 A 175 175 0 0 1 175 350 A 175 175 0 0 1 349.87305 175 z "
     transform="scale(0.2645825)" />
  <circle
     style="opacity:1;fill:#ffffff;fill-opacity:1;stroke:none;stroke-width:22.3101;stroke-miterlimit:4;stroke-dasharray:none;stroke-opacity:1"
     id="path1529"
     cx="92.603874"
     cy="92.603874"
     r="46.301937" />
  <g
     id="g971"
     transform="matrix(0.43749509,0,0,0.43749912,69.452988,69.452918)">
    <path
       d="M 13.3,0 A 13.23,13.23 45.307 0 1 26.46,13.3 V 52.917 H 0 V 13.3 A 13.3,13.3 135 0 1 13.3,0 Z"
       fill="url(#c)"
       id="path953"
       style="fill:url(#c)" />
    <path
       transform="rotate(90)"
       d="m 92.675,-105.834 a 13.23,13.23 45.307 0 1 13.158,13.3 v 39.617 H 79.375 v -39.617 a 13.3,13.3 135 0 1 13.3,-13.3 z"
       fill="url(#d)"
       id="path955"
       style="fill:url(#d)" />
    <path
       transform="scale(-1)"
       d="M -13.159,-105.833 A 13.23,13.23 45.307 0 1 0,-92.533 v 39.616 h -26.46 v -39.616 a 13.3,13.3 135 0 1 13.3,-13.3 z"
       fill="url(#e)"
       id="path957"
       style="fill:url(#e)" />
    <path
       d="M 52.862,0 A 52.917,52.917 0 0 0 0,52.917 a 52.917,52.917 0 0 0 52.917,52.916 52.917,52.917 0 0 0 52.917,-52.916 52.917,52.917 0 0 0 0,-0.014 13.23,13.23 0 0 0 0,-0.014 52.917,52.917 0 0 0 -0.056,-2.384 V 51.71 A 13.23,13.23 0 0 0 92.604,39.688 13.23,13.23 0 0 0 79.375,52.917 a 13.23,13.23 0 0 0 0,0.014 26.458,26.458 0 0 1 -26.458,26.444 26.458,26.458 0 0 1 -26.458,-26.458 26.458,26.458 0 0 1 26.403,-26.459 13.23,13.23 0 0 0 0.055,0 A 13.23,13.23 0 0 0 66.146,13.23 13.23,13.23 0 0 0 52.916,0 13.23,13.23 0 0 0 52.862,0 Z"
       fill="url(#f)"
       id="path959"
       style="fill:url(#f)" />
  </g>
</svg>
