<svg xmlns="http://www.w3.org/2000/svg" viewBox="0 0 512.038 512.038"><path d="M69.747 184.663h19.346v70.348H69.747c-8.741 0-15.828-7.088-15.828-15.828v-38.691c-.001-8.741 7.087-15.829 15.828-15.829z" fill="#cf4737"/><path d="M238.581 105.522h-35.174c-19.425 0-35.174 15.749-35.174 35.174v158.283h105.522V140.696c0-19.425-15.749-35.174-35.174-35.174z" fill="#3e8cc7"/><path d="M264.962 17.587l-69.24 8.793a35.32 35.32 0 00-1.108 8.793v35.174c0 19.425 15.749 35.174 35.174 35.174s35.174-15.749 35.174-35.174V35.174c.36-5.857.36-11.731 0-17.587z" fill="#fec9a3"/><g fill="#75462e"><path d="M194.614 26.38v35.174l35.174-35.174h26.38c14.571 0 26.38-11.81 26.38-26.38h-61.554c-14.57 0-26.38 11.81-26.38 26.38M273.755 298.978H168.233v87.935l-79.141 35.174 17.587 35.174 83.872-34.945a35.179 35.179 0 0021.65-32.474v-39.043c0-9.189 7.448-16.646 16.646-16.646a16.645 16.645 0 0114.509 8.486l74.366 132.21 35.174-17.587-79.141-158.284z"/></g><g fill="#3e8cc7"><path d="M84.229 500.296l-30.311-60.622 35.174-17.587 31.243 62.486a17.6 17.6 0 010 15.723 17.594 17.594 0 01-15.732 9.726H99.96a17.574 17.574 0 01-15.731-9.726zM388.07 483.641l-52.761 26.38-17.587-35.174 52.761-26.38c9.717-4.854 21.526-.923 26.38 8.793 4.855 9.717.915 21.527-8.793 26.381z"/></g><path d="M394.331 160.771c-7.211-9.611-20.858-11.563-30.469-4.353-.827.616-1.6 1.293-2.33 2.022l-43.809 43.809-43.967-52.761v70.348l3.843 5.76c14.193 21.271 42.939 27.022 64.219 12.83a46.03 46.03 0 007.061-5.795L392.31 189.2c7.649-7.659 8.511-19.767 2.021-28.429z" fill="#fec9a3"/><g fill="#75462e"><path d="M198.58 96.728h-65.52v17.587h65.52c12.715.009 23.013 10.324 23.004 23.039a23 23 0 01-2.304 10.025l-55.267 113.788-22.16 2.638v17.587l25.061-3.614a17.583 17.583 0 0013.305-9.726l54.845-112.979c9.796-20.172 1.381-44.469-18.792-54.265a40.573 40.573 0 00-17.692-4.08z"/><path d="M89.092 263.804c0 14.571 11.81 26.38 26.38 26.38h26.38c14.571 0 26.38-11.81 26.38-26.38v-8.793h-79.14v8.793z"/></g><path d="M166.739 123.109a26.378 26.378 0 00-24.886-17.587h-26.38c-14.571 0-26.38 11.81-26.38 26.38v123.109h79.141V131.902l-1.495-8.793z" fill="#de4c3c"/><path fill="#75462e" d="M458.124 508.055l-17.13 3.984-87.933-378.134 17.13-3.984z"/><path d="M128.663 26.38c-21.852 0-39.571 17.719-39.571 39.571s17.719 39.571 39.571 39.571 39.571-17.719 39.571-39.571-17.719-39.571-39.571-39.571zm0 52.761c-7.281 0-13.19-5.909-13.19-13.19s5.909-13.19 13.19-13.19 13.19 5.909 13.19 13.19-5.909 13.19-13.19 13.19z" fill="#3e8cc7"/><path d="M228.029 145.734l-51.002 31.094 59.796 43.009c10.095 6.753 12.803 20.401 6.05 30.496a21.86 21.86 0 01-.66.932c-7 9.312-20.04 11.546-29.74 5.1l-73.61-52.189a32.866 32.866 0 01-14.597-27.348 32.852 32.852 0 0114.632-27.339l64.817-40.283c9.699-6.446 22.74-4.212 29.74 5.1 7.255 9.734 5.25 23.505-4.485 30.768-.308.229-.624.449-.941.66z" fill="#fec9a3"/></svg>
