<svg xmlns="http://www.w3.org/2000/svg" xmlns:xlink="http://www.w3.org/1999/xlink" width="1280" height="720" viewBox="0 0 338.667 190.5"><defs><linearGradient id="a"><stop offset="0" stop-color="#00d5be"/><stop offset="1" stop-color="#2196f3" stop-opacity=".999"/></linearGradient><linearGradient xlink:href="#a" id="b" x1="338.667" y1="0" x2="71.552" y2="144.647" gradientUnits="userSpaceOnUse" gradientTransform="matrix(-1 0 0 1 338.667 0)"/></defs><path d="M338.667 0c-13.191-1.05-30.187 65.099-51.82 55.765-25.907-11.176-33.095 21.377-38.88 34.3-12.699 28.366-21.927 17.654-42.436 11.02-15.138-4.896-12.385 17.978-21.526 18.575-10.533.687-25.255-32.347-25.255 20.57 0 20.15-5.292 23.812-23.813 15.874-18.52-7.937-9.188 24.202-30.355 26.848-21.167 2.646-25.2-29.486-41.082-16.264-15.882 13.221-16.022-9.423-37.042 5.291L0 190.5V0z" fill="url(#b)"/></svg>