<svg width="69" height="58" viewBox="0 0 69 58" xmlns="http://www.w3.org/2000/svg"><g fill="none" fill-rule="evenodd"><g stroke="#000" stroke-linejoin="round" stroke-width="2"><path d="M22.212 57c1.89-2.755 2.836-5.617 2.836-8.586 0-2.97-.945-6.01-2.836-9.123M13.233 45.034l1.418-5.743M17.014 45.034l1.418-5.743M9.452 57c-1.89-2.755-2.836-5.617-2.836-8.586 0-2.97.946-6.01 2.836-9.123"/></g><g stroke="#000" stroke-linejoin="round" stroke-width="2"><path d="M59.548 57c1.89-2.755 2.836-5.617 2.836-8.586 0-2.97-.946-6.01-2.836-9.123M50.568 45.034l1.418-5.743M54.35 45.034l1.417-5.743M46.788 57c-1.89-2.755-2.836-5.617-2.836-8.586 0-2.97.945-6.01 2.836-9.123"/></g><path fill="#000" d="M26.938 56.043h15.123V58H26.938z"/><g transform="translate(0 16.795)"><path d="M58.13 11.487H69M58.13 7.658H69M0 11.487h10.87M0 7.658h10.87M50.568 17.71c1.89-2.755 2.836-5.618 2.836-8.587 0-2.97-.945-6.01-2.836-9.123M17.486 17.71c-1.89-2.755-2.835-5.618-2.835-8.587 0-2.97.945-6.01 2.835-9.123" stroke="#000" stroke-width="2" stroke-linejoin="round"/><path stroke="#000" stroke-width="2" stroke-linejoin="bevel" d="M38.28 11.966l3.782-8.616 3.78 8.616M22.212 11.966l3.781-8.616 3.781 8.616"/><circle fill="#000" cx="34.5" cy="15.705" r="1.5"/></g><g><path stroke="#000" stroke-width="2" stroke-linejoin="bevel" d="M19.85 12.009L25.047 1l5.199 11.009M38.753 12.009L43.953 1l5.198 11.009"/><path fill="#000" d="M30 11h9v2h-9z"/></g></g></svg>
