<svg height="464pt" viewBox="-7 0 463 464" width="464pt" xmlns="http://www.w3.org/2000/svg"><path d="m254.597656 88c-9.8125 0-19.003906-4.789062-24.628906-12.824219-5.628906-8.035156-6.980469-18.308593-3.628906-27.527343l10.160156-27.855469c4.316406-11.871094 15.59375-19.777344 28.222656-19.792969 9.8125 0 19.007813 4.785156 24.636719 12.820312 5.628906 8.035157 6.984375 18.3125 3.628906 27.53125l-10.089843 27.855469c-4.328126 11.898438-15.640626 19.8125-28.300782 19.792969zm0 0" fill="#fec9a3"/><path d="m264.5 248h-104l-31.527344 63.054688 54.871094 33.769531 32.65625-40.824219 54.296875 34.550781 35.367187-53.046875zm0 0" fill="#7a432a"/><path d="m.5 384 16 80h16l8-56-13.785156-33.359375zm0 0" fill="#348fd9"/><path d="m112.5 344-85.785156 30.640625 13.785156 33.359375 112-24 31.34375-39.175781-54.871094-33.769531zm0 0" fill="#fec9a3"/><path d="m344.5 320-38.335938-34.496094-35.367187 53.046875 33.703125 21.449219 53.488281 77.257812 42.511719-21.257812zm0 0" fill="#fec9a3"/><path d="m440.5 424-8-16-32 8-42.511719 21.257812 18.511719 26.742188zm0 0" fill="#348fd9"/><path d="m355.996094 109.070312c-7.085938-12.988281-20.699219-21.070312-35.496094-21.070312h-154.953125c-13.707031.003906-27.085937 4.1875-38.351563 12l-14.792968 10.238281 21.699218 38.976563 10.398438-5.214844h36.800781l-20.800781 104h104l36.398438-104h11.601562l11.296875 20.703125 40.472656-40.472656zm0 0" fill="#348fd9"/><path d="m448.5 100c.03125-13.273438-9.261719-24.742188-22.25-27.464844-12.988281-2.726562-26.105469 4.042969-31.414062 16.207032-5.308594 12.164062-1.34375 26.382812 9.488281 34.050781l-11.824219 53.207031-28.230469-51.769531-40.472656 40.472656 25.117187 46.066406c7.144532 13.085938 20.859376 21.230469 35.769532 21.230469 18.695312 0 34.996094-12.726562 39.527344-30.863281l24.289062-97.136719h-.398438c.226563-1.324219.359376-2.660156.398438-4zm0 0" fill="#fec9a3"/><path d="m100.5 216c-.929688.042969-1.855469.136719-2.777344.28125l-9.222656-32.28125 45.601562-34.785156-21.664062-38.992188-52.113281 36.074219c-11.714844 8.109375-16.65625 22.988281-12.121094 36.496094 8.296875 24.621093 20.296875 60.40625 20.296875 60.542969 1.488281 7.769531 5.613281 14.789062 11.679688 19.863281l.320312.800781.199219-.199219c8.960937 8.960938 22.824219 10.785157 33.800781 4.449219 10.972656-6.335938 16.324219-19.253906 13.042969-31.496094-3.277344-12.242187-14.371094-20.753906-27.042969-20.753906zm0 0" fill="#fec9a3"/><path d="m256.5 32h38.214844c.273437-4.074219-.300782-8.15625-1.679688-12l-.039062-.121094c-.660156-1.804687-1.488282-3.546875-2.472656-5.199218l-.230469-.359376c-.984375-1.625-2.121094-3.152343-3.394531-4.558593l-.101563-.105469c-1.277344-1.382812-2.683594-2.640625-4.191406-3.761719-.105469-.078125-.195313-.167969-.296875-.238281-1.484375-1.054688-3.0625-1.976562-4.710938-2.746094-.289062-.132812-.570312-.269531-.867187-.398437-1.667969-.730469-3.398438-1.304688-5.175781-1.710938-.292969-.074219-.597657-.113281-.902344-.175781-14.582032-3.027344-29.164063 5.167969-34.160156 19.199219l-10.152344 27.824219c-.726563 2.03125-1.230469 4.132812-1.511719 6.273437l6.320313-1.601563c11.011718-2.75 20.269531-10.171874 25.351562-20.320312zm0 0" fill="#7a432a"/><path d="m355.996094 109.070312c-7.085938-12.988281-20.699219-21.070312-35.496094-21.070312h-1.703125c-36.855469 59.914062-90.316406 107.839844-153.890625 137.953125l-4.40625 22.046875h104l36.398438-104h11.601562l11.296875 20.703125 40.472656-40.472656zm0 0" fill="#3086cd"/><path d="m240.5 120c-13.253906 0-24-10.746094-24-24v-8h48v8c0 13.253906-10.746094 24-24 24zm0 0" fill="#fec9a3"/><path d="m248.5 144h32v16h-32zm0 0" fill="#e0e0de"/><path d="m272.5 64h-40l-8 24h40zm0 0" fill="#fec9a3"/></svg>