<svg xmlns="http://www.w3.org/2000/svg" xmlns:xlink="http://www.w3.org/1999/xlink" width="400" height="400" viewBox="0 0 105.833 105.833"><defs><linearGradient id="b"><stop offset="0" stop-color="#008267"/><stop offset="1" stop-color="#00dfcd"/></linearGradient><linearGradient id="a"><stop offset="0" stop-color="#1565c0"/><stop offset=".498" stop-color="#1f87e5"/><stop offset=".84" stop-color="#63b4f6"/><stop offset="1" stop-color="#42a4f5"/></linearGradient><linearGradient xlink:href="#b" id="c" x1="-72.885" y1="52.209" x2="-73.132" y2="-.638" gradientUnits="userSpaceOnUse" gradientTransform="translate(86.393 .746)"/><linearGradient xlink:href="#b" id="e" gradientUnits="userSpaceOnUse" x1="-102.054" y1="59.618" x2="-100.671" y2="7.359" gradientTransform="translate(88.065 -113.013)"/><linearGradient xlink:href="#b" id="d" gradientUnits="userSpaceOnUse" x1="-102.705" y1="59.719" x2="-99.996" y2="7.108" gradientTransform="translate(193.898 -113.013)"/><radialGradient xlink:href="#a" id="f" cx="55.766" cy="233.16" fx="55.766" fy="233.16" r="200" gradientUnits="userSpaceOnUse" gradientTransform="matrix(.26458 0 0 .26458 38.162 -8.774)"/></defs><path d="M13.3 0A13.23 13.23 45.307 0126.46 13.3v39.617H0V13.3A13.3 13.3 135 0113.3 0z" fill="url(#c)"/><path transform="rotate(90)" d="M92.675-105.834a13.23 13.23 45.307 0113.158 13.3v39.617H79.375v-39.617a13.3 13.3 135 0113.3-13.3z" fill="url(#d)"/><path transform="scale(-1)" d="M-13.159-105.833A13.23 13.23 45.307 010-92.533v39.616H-26.46v-39.616a13.3 13.3 135 0113.3-13.3z" fill="url(#e)"/><path d="M52.862 0A52.917 52.917 0 000 52.917a52.917 52.917 0 0052.917 52.916 52.917 52.917 0 0052.917-52.916 52.917 52.917 0 000-.014 13.23 13.23 0 000-.014 52.917 52.917 0 00-.056-2.384v1.205a13.23 13.23 0 00-13.174-12.022 13.23 13.23 0 00-13.229 13.229 13.23 13.23 0 000 .014 26.458 26.458 0 01-26.458 26.444 26.458 26.458 0 01-26.458-26.458 26.458 26.458 0 0126.403-26.459 13.23 13.23 0 00.055 0A13.23 13.23 0 0066.146 13.23 13.23 13.23 0 0052.916 0a13.23 13.23 0 00-.054 0z" fill="url(#f)"/></svg>